<svg width="10" height="10" fill="none" xmlns="http://www.w3.org/2000/svg"><path d="M5 6.231a1.231 1.231 0 100-2.463 1.231 1.231 0 000 2.463z" fill="#000" fill-opacity=".6"/><path d="M9.938 4.844c-.09-.096-2.236-2.345-4.939-2.345C2.297 2.5.152 4.75.062 4.844a.228.228 0 000 .311c.09.096 2.235 2.346 4.937 2.346 2.703 0 4.85-2.25 4.939-2.346a.227.227 0 000-.311zM5 6.904a1.905 1.905 0 01-1.903-1.905c0-1.049.854-1.903 1.903-1.903 1.05 0 1.904.854 1.904 1.903 0 1.05-.855 1.904-1.904 1.904zM3.491 3.201A2.344 2.344 0 002.642 5c0 .724.335 1.364.849 1.798C2.068 6.34.951 5.378.551 5c.4-.376 1.517-1.34 2.94-1.797zM6.51 6.796A2.347 2.347 0 007.359 5c0-.723-.335-1.363-.85-1.796 1.423.458 2.54 1.42 2.94 1.796-.4.377-1.517 1.339-2.94 1.797z" fill="#000" fill-opacity=".6"/></svg>