<svg width="10" height="10" fill="none" xmlns="http://www.w3.org/2000/svg"><path d="M8.933 1.913h.309a.195.195 0 000-.39H8.5a.195.195 0 00-.195.195v.741a.195.195 0 00.39 0v-.214c.593.792.915 1.754.915 2.755A4.615 4.615 0 015 9.61 4.615 4.615 0 01.39 5 4.615 4.615 0 015.562.424.195.195 0 005.61.037a4.967 4.967 0 00-4.145 1.428A4.967 4.967 0 000 5a4.97 4.97 0 001.464 3.536A4.967 4.967 0 005 10a4.97 4.97 0 003.536-1.464A4.967 4.967 0 0010 5a4.984 4.984 0 00-1.067-3.087z" fill="#000" fill-opacity=".6"/><path d="M2.117 2.948a.195.195 0 00-.27.06 3.742 3.742 0 00-.555 2.383c.09.846.47 1.643 1.072 2.245A3.716 3.716 0 005 8.726c.955 0 1.91-.363 2.636-1.09a3.732 3.732 0 000-5.272 3.737 3.737 0 00-2.241-1.071 3.742 3.742 0 00-2.38.55.195.195 0 10.208.331 3.319 3.319 0 014.137.466 3.341 3.341 0 010 4.72 3.341 3.341 0 01-4.72 0 3.36 3.36 0 01-.462-4.143.195.195 0 00-.06-.27z" fill="#000" fill-opacity=".6"/><path d="M7.537 5.198h.241a.195.195 0 000-.39h-.24a.195.195 0 000 .39zm-5.51-.201c0 .108.087.195.195.195h.24a.195.195 0 000-.39h-.24a.195.195 0 00-.195.195zm3.171-2.534v-.241a.195.195 0 00-.39 0v.24a.195.195 0 00.39 0zm-.396 5.074v.241a.195.195 0 00.39 0v-.24a.195.195 0 00-.39 0zm-.78-3.791a.195.195 0 00-.276.276l.661.661a.673.673 0 101.186 0l1.335-1.335a.195.195 0 00-.276-.276L5.317 4.407a.668.668 0 00-.634 0l-.661-.661zM5.282 5a.282.282 0 11-.565 0 .282.282 0 01.565 0zM2.64 2.64a.196.196 0 000-.276.196.196 0 00-.276 0 .197.197 0 000 .276.197.197 0 00.276 0zM6.352.583a.196.196 0 00.195-.195.197.197 0 00-.195-.195.197.197 0 00-.195.195.196.196 0 00.195.195z" fill="#000" fill-opacity=".6"/></svg>