<svg width="8" height="8" fill="none" xmlns="http://www.w3.org/2000/svg"><g clip-path="url(#clip0)" fill="#000" fill-opacity=".6"><path d="M3.167 6.333A3.17 3.17 0 010 3.167 3.17 3.17 0 013.167 0a3.17 3.17 0 013.166 3.167 3.17 3.17 0 01-3.166 3.166zm0-5.833A2.67 2.67 0 00.5 3.167a2.67 2.67 0 002.667 2.666 2.67 2.67 0 002.666-2.666A2.67 2.67 0 003.167.5z"/><path d="M7.75 8a.248.248 0 01-.177-.073l-2.52-2.52a.25.25 0 11.354-.354l2.52 2.52A.25.25 0 017.75 8zM2.917 4.5a.25.25 0 01-.244-.306l.5-2.167a.25.25 0 01.487.112l-.5 2.167a.25.25 0 01-.243.194zm1.333-.333a.25.25 0 01-.167-.436l.627-.564-.627-.564a.25.25 0 01.334-.372l.834.75a.251.251 0 010 .372l-.834.75a.25.25 0 01-.167.064zm-2.167 0a.25.25 0 01-.167-.064l-.833-.75a.251.251 0 010-.372l.833-.75a.25.25 0 11.335.372l-.627.564.627.564a.25.25 0 01-.168.436z"/></g><defs><clipPath id="clip0"><path fill="#fff" d="M0 0h8v8H0z"/></clipPath></defs></svg>