<svg width="24" height="24" fill="none" xmlns="http://www.w3.org/2000/svg"><g clip-path="url(#clip0)" fill="#3D9FFF"><path d="M20.816 3.185h-6.644a2.37 2.37 0 00-1.689.7L3.088 13.28a2.373 2.373 0 00-.7 1.69c0 .637.248 1.237.7 1.688l6.643 6.644A2.381 2.381 0 0011.42 24a2.38 2.38 0 001.689-.698l9.396-9.396c.45-.451.7-1.051.7-1.69V5.575a2.391 2.391 0 00-2.39-2.389zm-3.185 7.962a2.391 2.391 0 01-2.389-2.388 2.391 2.391 0 012.389-2.39 2.391 2.391 0 012.388 2.39 2.391 2.391 0 01-2.388 2.388z"/><path d="M19.223 0H12.58c-.638 0-1.238.248-1.69.7l-9.395 9.395a2.373 2.373 0 00-.7 1.69c0 .498.153.974.435 1.373.188-.366.433-.705.732-1.004l9.395-9.395a3.955 3.955 0 012.816-1.167h6.643c.231 0 .458.021.68.06A2.393 2.393 0 0019.222 0z"/></g><defs><clipPath id="clip0"><path fill="#fff" d="M0 0h24v24H0z"/></clipPath></defs></svg>